<?xml version="1.0" encoding="UTF-8"?>
<svg version="1.1" xmlns="http://www.w3.org/2000/svg" width="1000" height="1000">
<path d="M0 0 C15.40373637 12.61215155 25.32047241 27.58513806 34.63745117 44.91381836 C35.03834961 44.18678711 35.43924805 43.45975586 35.85229492 42.71069336 C42.4737825 30.99921873 50.41178687 20.70567867 59.63745117 10.91381836 C60.2484668 10.23834961 60.85948242 9.56288086 61.48901367 8.86694336 C71.62095227 -1.91171473 84.28484898 -9.07315844 97.63745117 -15.08618164 C98.69319336 -15.56958008 99.74893555 -16.05297852 100.83666992 -16.55102539 C125.11373311 -26.77785482 156.19364711 -27.4944377 181.63745117 -21.08618164 C182.33644531 -20.91989258 183.03543945 -20.75360352 183.75561523 -20.58227539 C194.82379789 -17.89364803 204.71520493 -13.64033331 214.63745117 -8.08618164 C215.63518555 -7.5305957 216.63291992 -6.97500977 217.66088867 -6.40258789 C225.17644973 -1.91263236 231.45250197 3.78360322 237.63745117 9.91381836 C238.95616211 11.21319336 238.95616211 11.21319336 240.30151367 12.53881836 C247.10061771 19.61157055 252.02331813 27.32153069 256.63745117 35.91381836 C256.95842773 36.50646484 257.2794043 37.09911133 257.61010742 37.7097168 C264.93159568 51.50260419 269.05877914 66.65979055 271.44995117 82.03881836 C271.61769043 83.10845825 271.61769043 83.10845825 271.78881836 84.19970703 C273.79653653 98.79415041 273.78728544 113.69560131 273.75097656 128.40087891 C273.75069338 130.0489807 273.75085498 131.69708261 273.75141907 133.34518433 C273.75170193 137.75095495 273.74588919 142.15669744 273.73884511 146.56246161 C273.73252518 151.19217769 273.73200103 155.82189466 273.7308197 160.45161438 C273.72773155 169.18810687 273.71955264 177.9245866 273.70947021 186.66107351 C273.6961219 198.48827329 273.69078881 210.31547664 273.68496799 222.14268208 C273.67561061 240.73307036 273.65567506 259.32343175 273.63745117 277.91381836 C238.65745117 277.91381836 203.67745117 277.91381836 167.63745117 277.91381836 C167.60006836 266.40506836 167.56268555 254.89631836 167.52416992 243.03881836 C167.49387856 235.72891069 167.4628432 228.41901858 167.4284668 221.10913086 C167.37409276 209.51767421 167.32267509 197.92626073 167.29101562 186.3347168 C167.26793857 177.89060039 167.23443346 169.44659845 167.18874961 161.00257301 C167.16494744 156.53744473 167.14613394 152.0724289 167.13983727 147.60723877 C167.13372692 143.3915528 167.11351672 139.17615407 167.08317566 134.9605751 C167.0744896 133.42571138 167.07065288 131.89080996 167.07244301 130.3559227 C167.0886908 109.96922186 163.69645829 90.40606268 148.98901367 75.21069336 C136.51362209 63.61385048 120.47219318 62.16474444 104.22338867 62.56616211 C89.63696292 63.24967114 76.63067152 69.20860763 66.05541992 79.24584961 C49.11431865 97.93853486 46.5349881 121.44658471 46.43212891 145.65673828 C46.42252731 147.10662094 46.41251598 148.55650093 46.40213013 150.00637817 C46.37532181 153.90847768 46.35418347 157.81058899 46.33412814 161.71272826 C46.31211833 165.80332393 46.28480367 169.89388425 46.2580719 173.98445129 C46.20834621 181.71537119 46.16333354 189.44631092 46.12004954 197.17726928 C46.06122428 207.63482482 45.99504674 218.09233372 45.92929935 228.5498476 C45.82603984 245.00447301 45.73254154 261.45913902 45.63745117 277.91381836 C10.98745117 277.91381836 -23.66254883 277.91381836 -59.36254883 277.91381836 C-59.39993164 266.56104492 -59.43731445 255.20827148 -59.47583008 243.51147461 C-59.50612423 236.29726993 -59.53716167 229.08308098 -59.5715332 221.86889648 C-59.62589045 210.43116725 -59.67730873 198.99348162 -59.70898438 187.55566406 C-59.73207403 179.22323865 -59.76559277 170.89092899 -59.81125039 162.5585956 C-59.83503585 158.15323905 -59.85386015 153.7479961 -59.86016273 149.34257698 C-59.86628084 145.18187853 -59.88651771 141.02147019 -59.91682434 136.8608799 C-59.92549831 135.34739968 -59.92934974 133.83388137 -59.92755699 132.32037735 C-59.91146065 112.43115034 -62.69207704 92.33945018 -76.36254883 76.91381836 C-88.59405829 65.06384222 -103.26203724 62.49860297 -119.61547852 62.5480957 C-135.72087118 62.82861469 -149.34682528 68.35258442 -161.08129883 79.51147461 C-177.58311718 96.88924565 -180.47302545 119.78840152 -180.56787109 142.70507812 C-180.57746648 144.18422204 -180.5874775 145.6633633 -180.59786987 147.14250183 C-180.62474524 151.13356008 -180.64584805 155.12462995 -180.66587186 159.11572766 C-180.68783944 163.29575508 -180.71517509 167.47574742 -180.7419281 171.65574646 C-180.7917101 179.56027137 -180.83670229 187.46481592 -180.87995046 195.36937898 C-180.93871282 206.05852149 -181.00492123 216.74761775 -181.07070065 227.43671894 C-181.17404843 244.26238752 -181.26748825 261.08809619 -181.36254883 277.91381836 C-216.01254883 277.91381836 -250.66254883 277.91381836 -286.36254883 277.91381836 C-286.21430664 265.13018555 -286.06606445 252.34655273 -285.91333008 239.17553711 C-285.84849707 230.8799145 -285.78738798 222.58479237 -285.75341797 214.2890625 C-285.74688743 212.70631128 -285.74688743 212.70631128 -285.74022496 211.09158528 C-285.70966929 203.2615099 -285.68975537 195.43143825 -285.67504883 187.60131836 C-285.6727456 186.49611391 -285.67044238 185.39090945 -285.66806936 184.25221395 C-285.54152252 117.29150553 -287.14247965 53.45774025 -305.64796448 -11.38597107 C-306.36254883 -14.08618164 -306.36254883 -14.08618164 -306.36254883 -16.08618164 C-271.38254883 -16.08618164 -236.40254883 -16.08618164 -200.36254883 -16.08618164 C-198.11172776 -7.08289737 -198.11172776 -7.08289737 -197.49291992 -3.32592773 C-197.35292572 -2.4850058 -197.21293152 -1.64408386 -197.06869507 -0.77767944 C-196.92590118 0.10278046 -196.7831073 0.98324036 -196.63598633 1.89038086 C-196.48344391 2.81926117 -196.33090149 3.74814148 -196.17373657 4.70516968 C-195.85442668 6.65627553 -195.53685638 8.6076668 -195.22094727 10.55932617 C-194.73770056 13.53788315 -194.24574719 16.5149163 -193.75317383 19.49194336 C-193.44275011 21.39550318 -193.13283673 23.29914631 -192.82348633 25.20288086 C-192.67664398 26.08738922 -192.52980164 26.97189758 -192.37850952 27.88320923 C-191.67457114 32.27785279 -191.19203715 36.44495338 -191.36254883 40.91381836 C-188.62806316 38.42943809 -186.83251573 35.65236775 -184.86254883 32.53881836 C-180.22989966 25.509092 -174.98164997 19.17330868 -169.36254883 12.91381836 C-168.64454102 12.11073242 -167.9265332 11.30764648 -167.18676758 10.48022461 C-156.47620162 -0.83545807 -143.49389096 -8.78989191 -129.36254883 -15.08618164 C-128.3080957 -15.56829102 -127.25364258 -16.05040039 -126.16723633 -16.54711914 C-86.96649636 -33.08963089 -33.36236037 -26.35146617 0 0 Z " fill="#B3F54F" transform="translate(320.362548828125,374.086181640625)"/>
<path d="M0 0 C1.71721252 0.00273422 1.71721252 0.00273422 3.46911621 0.00552368 C19.93360008 0.04966246 36.0692242 0.37703785 52.3125 3.3125 C53.2931543 3.47878906 54.27380859 3.64507812 55.28417969 3.81640625 C94.74172723 10.63467047 137.80391095 27.10764438 161.9921875 60.796875 C170.59663411 73.44160805 175.48920982 87.16486631 177.3125 102.3125 C163.48293522 102.59319146 149.65381369 102.80380694 135.82198238 102.93424606 C129.39895229 102.99685517 122.97783641 103.08175371 116.5559082 103.21777344 C110.35711978 103.34824401 104.16017095 103.41992531 97.96011543 103.45102692 C95.59597361 103.47318674 93.23193172 103.51646429 90.86857414 103.58126068 C72.28165581 104.07055267 72.28165581 104.07055267 67.37844849 99.69299316 C65.57138595 96.59879198 64.44171777 93.69989049 63.3125 90.3125 C53.93825363 77.3162626 35.42555091 71.83843655 20.42578125 69.19921875 C12.90827173 68.10355811 5.4666592 67.97526856 -2.11523438 67.99682617 C-4.4210588 67.99997753 -6.72558362 67.97645761 -9.03125 67.95117188 C-24.58518256 67.8845061 -42.48705444 69.0319444 -55.3125 78.8125 C-58.93448415 82.62511489 -59.56614349 85.03825668 -60.0625 90.25 C-59.89707906 94.65019696 -58.74762693 97.03379257 -55.6875 100.3125 C-44.76551283 107.69165448 -31.03505747 108.74570835 -18.2578125 109.8203125 C-16.87032774 109.94328367 -15.48288789 110.06676244 -14.0954895 110.19070435 C-3.40178888 111.13288773 7.30273341 111.94175434 18.0078125 112.7421875 C18.80042229 112.80157753 19.59303207 112.86096756 20.40966034 112.92215729 C22.83166899 113.10347968 25.25371466 113.28429704 27.67578125 113.46484375 C28.88088034 113.5547011 28.88088034 113.5547011 30.11032486 113.64637375 C34.18527573 113.94921928 38.26050178 114.24715228 42.33642578 114.53662109 C138.49928786 121.39168984 138.49928786 121.39168984 166.63525391 153.83789062 C181.01981762 171.93154114 185.26116951 194.98879252 183.09423828 217.58886719 C180.12218579 241.29216102 168.78520275 260.00574703 150.79296875 275.38671875 C101.43354691 313.70828563 26.12737983 314.85815605 -33.15576172 307.90576172 C-77.71021065 302.13267126 -126.0734245 288.37237183 -155.18359375 251.69140625 C-166.63297906 236.59923372 -170.44792322 221.34890264 -172.6875 202.3125 C-137.3775 202.3125 -102.0675 202.3125 -65.6875 202.3125 C-63.3775 206.6025 -61.0675 210.8925 -58.6875 215.3125 C-46.00173554 231.10498229 -23.870967 236.05636572 -4.6875 238.3125 C0.6397846 238.85804323 5.95965979 239.13499649 11.3125 239.3125 C12.40175781 239.35375 13.49101563 239.395 14.61328125 239.4375 C46.86022954 240.06083318 46.86022954 240.06083318 74.92578125 226.765625 C77.9730296 223.29777054 79.19211096 220.58862384 79.625 216 C79.23610154 211.41099821 78.42251993 209.71871231 75.3125 206.3125 C64.05179833 198.17451392 47.95032078 197.23876438 34.58203125 195.84765625 C33.36885727 195.7196312 32.15568329 195.59160614 30.90574646 195.45970154 C15.63626932 193.88470655 0.33053119 192.73563555 -14.97583008 191.58569336 C-29.12854281 190.51581834 -43.21200148 189.25083041 -57.27734375 187.328125 C-58.43245956 187.17094498 -59.58757538 187.01376495 -60.7776947 186.8518219 C-91.87415578 182.41015648 -127.76520052 173.07919451 -148.84765625 147.8515625 C-162.66094978 128.78863088 -167.3732474 107.34305496 -164.1875 84.078125 C-160.05447125 61.44039934 -147.92416763 43.55980662 -129.32324219 30.234375 C-91.73777482 4.7881882 -44.22813884 -0.14644282 0 0 Z " fill="#B4F64F" transform="translate(802.6875,349.6875)"/>
</svg>
